{
	"asset":{
		"generator":"Khronos glTF Blender I/O v4.2.57",
		"version":"2.0"
	},
	"scene":0,
	"scenes":[
		{
			"name":"Scene",
			"nodes":[
				0,
				1,
				2,
				3
			]
		}
	],
	"nodes":[
		{
			"mesh":0,
			"name":"Cube",
			"translation":[
				0,
				1.5484408140182495,
				0
			]
		},
		{
			"mesh":1,
			"name":"Cube.001",
			"rotation":[
				0.6979471445083618,
				0.025307651609182358,
				0.030385835096240044,
				0.7150567770004272
			],
			"translation":[
				0.09928403794765472,
				2.5332157611846924,
				-3.349177122116089
			]
		},
		{
			"mesh":2,
			"name":"Cube.002",
			"translation":[
				0,
				0.14541694521903992,
				0
			]
		},
		{
			"mesh":3,
			"name":"Cube.003",
			"scale":[
				1,
				1.8593324422836304,
				1
			],
			"translation":[
				0.13184626400470734,
				0.12296748161315918,
				-3.397993564605713
			]
		}
	],
	"materials":[
		{
			"doubleSided":true,
			"name":"Material",
			"pbrMetallicRoughness":{
				"baseColorFactor":[
					0,
					0,
					0,
					1
				],
				"metallicFactor":0,
				"roughnessFactor":0.5
			}
		},
		{
			"doubleSided":true,
			"name":"Material.003",
			"pbrMetallicRoughness":{
				"baseColorFactor":[
					0,
					0,
					0,
					1
				],
				"metallicFactor":0,
				"roughnessFactor":0.5
			}
		},
		{
			"doubleSided":true,
			"name":"Material.002",
			"pbrMetallicRoughness":{
				"baseColorFactor":[
					0.4927772879600525,
					0.5068100094795227,
					0.4999902844429016,
					1
				],
				"metallicFactor":0,
				"roughnessFactor":0.5
			}
		},
		{
			"doubleSided":true,
			"name":"Material.004",
			"pbrMetallicRoughness":{
				"baseColorFactor":[
					0.5,
					0.5,
					0.5,
					1
				],
				"metallicFactor":0.5,
				"roughnessFactor":0.5
			}
		}
	],
	"meshes":[
		{
			"name":"Cube.003",
			"primitives":[
				{
					"attributes":{
						"POSITION":0,
						"NORMAL":1,
						"TEXCOORD_0":2
					},
					"indices":3,
					"material":0
				}
			]
		},
		{
			"name":"Cube.004",
			"primitives":[
				{
					"attributes":{
						"POSITION":4,
						"NORMAL":5,
						"TEXCOORD_0":6
					},
					"indices":3,
					"material":1
				}
			]
		},
		{
			"name":"Cube.005",
			"primitives":[
				{
					"attributes":{
						"POSITION":7,
						"NORMAL":8,
						"TEXCOORD_0":9
					},
					"indices":10,
					"material":2
				}
			]
		},
		{
			"name":"Cube.006",
			"primitives":[
				{
					"attributes":{
						"POSITION":11,
						"NORMAL":12,
						"TEXCOORD_0":13
					},
					"indices":10,
					"material":3
				}
			]
		}
	],
	"accessors":[
		{
			"bufferView":0,
			"componentType":5126,
			"count":212,
			"max":[
				0.051497578620910645,
				1,
				2.0359532833099365
			],
			"min":[
				-0.3175668716430664,
				-1,
				-2.0359532833099365
			],
			"type":"VEC3"
		},
		{
			"bufferView":1,
			"componentType":5126,
			"count":212,
			"type":"VEC3"
		},
		{
			"bufferView":2,
			"componentType":5126,
			"count":212,
			"type":"VEC2"
		},
		{
			"bufferView":3,
			"componentType":5123,
			"count":372,
			"type":"SCALAR"
		},
		{
			"bufferView":4,
			"componentType":5126,
			"count":212,
			"max":[
				0.051497578620910645,
				1,
				2.0359532833099365
			],
			"min":[
				-0.3175668716430664,
				-1,
				-2.0359532833099365
			],
			"type":"VEC3"
		},
		{
			"bufferView":5,
			"componentType":5126,
			"count":212,
			"type":"VEC3"
		},
		{
			"bufferView":6,
			"componentType":5126,
			"count":212,
			"type":"VEC2"
		},
		{
			"bufferView":7,
			"componentType":5126,
			"count":28,
			"max":[
				0.5999584197998047,
				1.3454195261001587,
				0.7049660086631775
			],
			"min":[
				-0.7734344601631165,
				-0.046427249908447266,
				-0.7045562863349915
			],
			"type":"VEC3"
		},
		{
			"bufferView":8,
			"componentType":5126,
			"count":28,
			"type":"VEC3"
		},
		{
			"bufferView":9,
			"componentType":5126,
			"count":28,
			"type":"VEC2"
		},
		{
			"bufferView":10,
			"componentType":5123,
			"count":72,
			"type":"SCALAR"
		},
		{
			"bufferView":11,
			"componentType":5126,
			"count":28,
			"max":[
				0.5999584197998047,
				1.3454195261001587,
				0.7049660086631775
			],
			"min":[
				-0.7734344601631165,
				-0.046427249908447266,
				-0.7045562863349915
			],
			"type":"VEC3"
		},
		{
			"bufferView":12,
			"componentType":5126,
			"count":28,
			"type":"VEC3"
		},
		{
			"bufferView":13,
			"componentType":5126,
			"count":28,
			"type":"VEC2"
		}
	],
	"bufferViews":[
		{
			"buffer":0,
			"byteLength":2544,
			"byteOffset":0,
			"target":34962
		},
		{
			"buffer":0,
			"byteLength":2544,
			"byteOffset":2544,
			"target":34962
		},
		{
			"buffer":0,
			"byteLength":1696,
			"byteOffset":5088,
			"target":34962
		},
		{
			"buffer":0,
			"byteLength":744,
			"byteOffset":6784,
			"target":34963
		},
		{
			"buffer":0,
			"byteLength":2544,
			"byteOffset":7528,
			"target":34962
		},
		{
			"buffer":0,
			"byteLength":2544,
			"byteOffset":10072,
			"target":34962
		},
		{
			"buffer":0,
			"byteLength":1696,
			"byteOffset":12616,
			"target":34962
		},
		{
			"buffer":0,
			"byteLength":336,
			"byteOffset":14312,
			"target":34962
		},
		{
			"buffer":0,
			"byteLength":336,
			"byteOffset":14648,
			"target":34962
		},
		{
			"buffer":0,
			"byteLength":224,
			"byteOffset":14984,
			"target":34962
		},
		{
			"buffer":0,
			"byteLength":144,
			"byteOffset":15208,
			"target":34963
		},
		{
			"buffer":0,
			"byteLength":336,
			"byteOffset":15352,
			"target":34962
		},
		{
			"buffer":0,
			"byteLength":336,
			"byteOffset":15688,
			"target":34962
		},
		{
			"buffer":0,
			"byteLength":224,
			"byteOffset":16024,
			"target":34962
		}
	],
	"buffers":[
		{
			"byteLength":16248,
			"uri":"monitor.bin"
		}
	]
}
